<svg width="3970" height="1152" xmlns="http://www.w3.org/2000/svg" xmlns:xlink="http://www.w3.org/1999/xlink" xml:space="preserve" overflow="hidden"><g transform="translate(-215 -412)"><rect x="220" y="417" width="665" height="190" stroke="#000000" stroke-width="10.3125" stroke-miterlimit="8" fill="#B9E99D"/><text font-family="Arial,Arial_MSFontService,sans-serif" font-weight="400" font-size="55" transform="matrix(1 0 0 1 436.656 532)">Test Data</text><rect x="1044" y="417" width="665" height="190" stroke="#000000" stroke-width="10.3125" stroke-miterlimit="8" fill="#B9E99D"/><text font-family="Arial,Arial_MSFontService,sans-serif" font-weight="400" font-size="55" transform="matrix(1 0 0 1 1247.95 532)">Test Steps</text><rect x="1867" y="417" width="666" height="190" stroke="#000000" stroke-width="10.3125" stroke-miterlimit="8" fill="#B9E99D"/><text font-family="Arial,Arial_MSFontService,sans-serif" font-weight="400" font-size="55" transform="matrix(1 0 0 1 2095.91 532)">Test Info</text><rect x="1867" y="655" width="666" height="190" stroke="#000000" stroke-width="10.3125" stroke-miterlimit="8" fill="#B9E99D"/><text font-family="Arial,Arial_MSFontService,sans-serif" font-weight="400" font-size="55" transform="matrix(1 0 0 1 1962.53 770)">Discharge Capacity</text><rect x="1867" y="893" width="666" height="190" stroke="#000000" stroke-width="10.3125" stroke-miterlimit="8" fill="#B9E99D"/><text font-family="Arial,Arial_MSFontService,sans-serif" font-weight="400" font-size="55" transform="matrix(1 0 0 1 2032.42 1008)">Current Pulse</text><path d="M914 506.844 989.074 506.844 989.074 517.156 914 517.156ZM983.918 496.531 1014.86 512 983.917 527.469Z"/><path d="M1738 506.844 1813.07 506.844 1813.07 517.156 1738 517.156ZM1807.92 496.531 1838.85 512 1807.92 527.469Z"/><rect x="2691" y="417" width="665" height="190" stroke="#000000" stroke-width="10.3125" stroke-miterlimit="8" fill="#B9E99D"/><text font-family="Arial,Arial_MSFontService,sans-serif" font-weight="400" font-size="55" transform="matrix(1 0 0 1 2886.4 532)">Eval Group</text><rect x="3515" y="417" width="665" height="190" stroke="#000000" stroke-width="10.3125" stroke-miterlimit="8" fill="#B9E99D"/><text font-family="Arial,Arial_MSFontService,sans-serif" font-weight="400" font-size="55" transform="matrix(1 0 0 1 3711.73 532)">Aging Data</text><rect x="1867" y="1131" width="666" height="190" stroke="#000000" stroke-width="10.3125" stroke-miterlimit="8" fill="#B9E99D"/><text font-family="Arial,Arial_MSFontService,sans-serif" font-weight="400" font-size="55" transform="matrix(1 0 0 1 2118.93 1246)">QOCV</text><rect x="1867" y="1369" width="666" height="190" stroke="#000000" stroke-width="10.3125" stroke-miterlimit="8" fill="#B9E99D"/><text font-family="Arial,Arial_MSFontService,sans-serif" font-weight="400" font-size="55" transform="matrix(1 0 0 1 2172.5 1484)">…</text><rect x="3515" y="655" width="665" height="190" stroke="#000000" stroke-width="10.3125" stroke-miterlimit="8" fill="#B9E99D"/><text font-family="Arial,Arial_MSFontService,sans-serif" font-weight="400" font-size="55" transform="matrix(1 0 0 1 3605.49 770)">Parameter Variation</text><rect x="3515" y="893" width="665" height="190" stroke="#000000" stroke-width="10.3125" stroke-miterlimit="8" fill="#B9E99D"/><text font-family="Arial,Arial_MSFontService,sans-serif" font-weight="400" font-size="55" transform="matrix(1 0 0 1 3792.83 1008)">DVA</text><rect x="3515" y="1131" width="665" height="190" stroke="#000000" stroke-width="10.3125" stroke-miterlimit="8" fill="#B9E99D"/><text font-family="Arial,Arial_MSFontService,sans-serif" font-weight="400" font-size="55" transform="matrix(1 0 0 1 3819.72 1246)">…</text><path d="M2561 506.844 2636.07 506.844 2636.07 517.156 2561 517.156ZM2630.92 496.531 2661.85 512 2630.92 527.469Z"/><path d="M3385 506.844 3460.07 506.844 3460.07 517.156 3385 517.156ZM3454.92 496.531 3485.85 512 3454.92 527.469Z"/></g></svg>
